<?xml version="1.0" encoding="utf-8"?>
<!-- Generator: Adobe Illustrator 24.2.1, SVG Export Plug-In . SVG Version: 6.00 Build 0)  -->
<svg version="1.1" id="Layer_1" xmlns="http://www.w3.org/2000/svg" xmlns:xlink="http://www.w3.org/1999/xlink" x="0px" y="0px"
	 viewBox="0 0 7000 7000" style="enable-background:new 0 0 7000 7000;" xml:space="preserve">
<style type="text/css">
	.st0{display:none;fill:#FFFFFF;}
	.st1{fill:#FFFFFF;}
</style>
<rect class="st0" width="7000" height="7000"/>
<g>
	<path class="st1" d="M628.3,4003.5c-47.5-47.5-70.7-118.2-70.7-165.7c0-47.8,23.1-119.6,70.7-167.1l332.8-331.6
		c95.3-95,237.8-95,332.8,0l23.4,23.1l1306.8,1402.1c47.5,47.5,118.1,47.5,165.9,0L5971.8,1463h24.3c95.3-95.3,237.8-95.3,332.8,0
		l331.9,332.8c95,93.8,95,236.6,0,331.6L2861.9,6069.9c-47.5,47.5-95.3,70.7-167.1,70.7c-70.7,0-118.2-23.2-165.7-70.7L675.8,4075.3
		L628.3,4003.5z M628.3,4003.5"/>
</g>
</svg>
