<svg xmlns="http://www.w3.org/2000/svg" width="22" height="22" viewBox="0 0 22 22"><defs><style>.a{fill:none;}.b{fill:#cccccc;}</style></defs><rect class="a" width="22" height="22"/><path class="b" d="M21.508,19.614,17.044,15.15a9.262,9.262,0,0,0,1.894-5.681A9.411,9.411,0,0,0,9.469,0,9.411,9.411,0,0,0,0,9.469a9.411,9.411,0,0,0,9.469,9.469,9.262,9.262,0,0,0,5.681-1.894l4.464,4.464ZM2.705,9.469A6.7,6.7,0,0,1,9.469,2.705a6.7,6.7,0,0,1,6.764,6.764,6.7,6.7,0,0,1-6.764,6.764A6.7,6.7,0,0,1,2.705,9.469Z" /></svg>
